# xmcd CD database file
#
# Track frame offsets:
#	150
#	46434
#	86540
#	127912
#	160444
#	237772
#	284135
#
# Disc length: 4359 seconds
#
# Revision: 0
# Processed by: cddbd v1.5.1PL2 Copyright (c) Steve Scherf et al.
# Submitted via: CDex 1.51
#
DISCID=5d110507
DTITLE=Satoko Fujii - Live!!
DYEAR=2005
DGENRE=Jazz
TTITLE0=Scramble
TTITLE1=Water
TTITLE2=An Unpaved Road
TTITLE3=A Brick House
TTITLE4=A Submarine Volcano
TTITLE5=Fue Taiko
TTITLE6=Bennie's Waltz
EXTD=YEAR: 2005
EXTT0=
EXTT1=
EXTT2=
EXTT3=
EXTT4=
EXTT5=
EXTT6=
PLAYORDER=
